<svg width="12" height="12" viewBox="0 0 12 12" fill="none" xmlns="http://www.w3.org/2000/svg">
<path d="M10.1244 1.722C9.16723 0.758622 7.90398 0.159371 6.55239 0.0275548C5.20079 -0.104262 3.84556 0.239617 2.72033 0.999907C1.5951 1.7602 0.770395 2.88925 0.388387 4.19242C0.0063784 5.49559 0.0910099 6.89121 0.627691 8.13866C0.683627 8.25461 0.70198 8.38512 0.680191 8.512L0.166858 10.9795C0.14708 11.0741 0.151119 11.1721 0.17861 11.2648C0.206102 11.3574 0.256185 11.4418 0.324358 11.5103C0.380243 11.5658 0.446784 11.6094 0.519969 11.6385C0.593154 11.6675 0.671468 11.6815 0.750191 11.6795H0.866858L3.36352 11.1778C3.49042 11.1626 3.61909 11.1807 3.73686 11.2303C4.98432 11.767 6.37993 11.8516 7.6831 11.4696C8.98627 11.0876 10.1153 10.2629 10.8756 9.13769C11.6359 8.01246 11.9798 6.65723 11.848 5.30563C11.7162 3.95404 11.1169 2.69079 10.1535 1.73366L10.1244 1.722ZM3.66686 6.4295C3.55149 6.4295 3.4387 6.39529 3.34278 6.33119C3.24685 6.26709 3.17208 6.17599 3.12793 6.0694C3.08378 5.96281 3.07222 5.84552 3.09473 5.73236C3.11724 5.61921 3.1728 5.51527 3.25438 5.43368C3.33596 5.3521 3.4399 5.29655 3.55306 5.27404C3.66621 5.25153 3.7835 5.26308 3.89009 5.30723C3.99668 5.35139 4.08778 5.42615 4.15188 5.52208C4.21598 5.61801 4.25019 5.73079 4.25019 5.84616C4.25019 6.00087 4.18873 6.14925 4.07934 6.25864C3.96994 6.36804 3.82157 6.4295 3.66686 6.4295ZM6.00019 6.4295C5.88482 6.4295 5.77204 6.39529 5.67611 6.33119C5.58018 6.26709 5.50541 6.17599 5.46126 6.0694C5.41711 5.96281 5.40556 5.84552 5.42807 5.73236C5.45057 5.61921 5.50613 5.51527 5.58771 5.43368C5.66929 5.3521 5.77323 5.29655 5.88639 5.27404C5.99954 5.25153 6.11683 5.26308 6.22342 5.30723C6.33001 5.35139 6.42112 5.42615 6.48521 5.52208C6.54931 5.61801 6.58352 5.73079 6.58352 5.84616C6.58352 6.00087 6.52207 6.14925 6.41267 6.25864C6.30327 6.36804 6.1549 6.4295 6.00019 6.4295ZM8.33352 6.4295C8.21815 6.4295 8.10537 6.39529 8.00944 6.33119C7.91351 6.26709 7.83875 6.17599 7.79459 6.0694C7.75044 5.96281 7.73889 5.84552 7.7614 5.73236C7.78391 5.61921 7.83946 5.51527 7.92105 5.43368C8.00263 5.3521 8.10657 5.29655 8.21972 5.27404C8.33288 5.25153 8.45017 5.26308 8.55676 5.30723C8.66335 5.35139 8.75445 5.42615 8.81855 5.52208C8.88265 5.61801 8.91686 5.73079 8.91686 5.84616C8.91686 6.00087 8.8554 6.14925 8.746 6.25864C8.63661 6.36804 8.48823 6.4295 8.33352 6.4295Z" fill="#F25822"/>
</svg>
